<?xml version="1.0" encoding="utf-8"?>
<!-- Generator: Adobe Illustrator 21.1.0, SVG Export Plug-In . SVG Version: 6.00 Build 0)  -->
<svg version="1.1" id="trash" xmlns="http://www.w3.org/2000/svg" xmlns:xlink="http://www.w3.org/1999/xlink" x="0px" y="0px"
	 viewBox="0 0 30 30" enable-background="new 0 0 30 30" xml:space="preserve">
<rect fill-rule="evenodd" clip-rule="evenodd" fill="none" width="30" height="30"/>
<path d="M18.5,19.9999h-1v-8h1V19.9999z M12.5,19.9999h-1v-8h1V19.9999z M15.5,19.9999h-1v-8h1V19.9999z M25,7h-4.1667
	l-0.8774-2.6324C19.6837,3.5508,18.9194,3,18.0585,3h-6.1169c-0.8608,0-1.6251,0.5508-1.8973,1.3676L9.1667,7H5v2h1.6053
	l0.795,15.1051C7.4562,25.1674,8.3338,26,9.3975,26h11.205c1.0637,0,1.9413-0.8326,1.9972-1.8949L23.3947,9H25V7z M11.9415,5h6.1169
	l0.6667,2h-7.4503L11.9415,5z M20.6025,24l-11.205-0.0001L8.608,9H21.392L20.6025,24z"/>
</svg>
