<?xml version="1.0" encoding="utf-8"?>
<!-- Generator: Adobe Illustrator 19.2.1, SVG Export Plug-In . SVG Version: 6.00 Build 0)  -->
<svg version="1.1" id="add-media" xmlns="http://www.w3.org/2000/svg" xmlns:xlink="http://www.w3.org/1999/xlink" x="0px" y="0px"
	 viewBox="0 0 69.3265 42.1703" enable-background="new 0 0 69.3265 42.1703" xml:space="preserve">
<path d="M50.8366,20.0436l-0.915,5.7693c-0.0442,0.279-0.1828,0.5043-0.4153,0.6762c-0.2328,0.172-0.4861,0.2361-0.7602,0.1926
	l-4.6815-0.7425l0.4357,2.1797l3.9194,0.6216c0.2741,0.0435,0.4951,0.1831,0.6632,0.4184c0.1678,0.2356,0.2299,0.4927,0.1857,0.7714
	l-1.306,8.2348c-0.0442,0.2787-0.1827,0.5041-0.4153,0.6762c-0.2327,0.1718-0.4862,0.2361-0.7602,0.1926l-12.1467-1.9265
	c-0.2743-0.0435-0.4954-0.1831-0.6632-0.4184c-0.0784-0.1098-0.1286-0.2254-0.1608-0.3446l-7.0541,1.4096
	c0.2866,0.1859,0.6093,0.3111,0.9721,0.3686l25.3056,4.0136c0.6959,0.1104,1.3314-0.0473,1.9072-0.4725
	c0.5754-0.4255,0.9193-0.9919,1.0315-1.6996l2.7034-17.0446C55.6992,22.9041,52.9649,21.8254,50.8366,20.0436z M54.0359,39.1284
	c-0.0443,0.2787-0.1829,0.504-0.4153,0.6761c-0.2328,0.1718-0.4862,0.2362-0.7603,0.1927l-2.0245-0.3211
	c-0.2743-0.0436-0.4954-0.1832-0.6632-0.4185c-0.1681-0.2356-0.2299-0.4927-0.1857-0.7714l0.3265-2.0588
	c0.0442-0.2787,0.1825-0.504,0.4153-0.6761c0.2325-0.1718,0.4858-0.2362,0.7602-0.1927l2.0244,0.3211
	c0.2742,0.0435,0.4952,0.1831,0.6633,0.4184c0.1678,0.2355,0.2299,0.4927,0.1857,0.7714L54.0359,39.1284z M55.0154,32.9522
	c-0.0443,0.279-0.1829,0.5043-0.4153,0.6762c-0.2328,0.172-0.4861,0.2361-0.7603,0.1926L51.8155,33.5
	c-0.2744-0.0436-0.4954-0.183-0.6632-0.4185c-0.1682-0.2353-0.23-0.4925-0.1857-0.7714l0.3265-2.0587
	c0.0442-0.2787,0.1825-0.5041,0.4153-0.6761c0.2325-0.1718,0.4858-0.2362,0.7602-0.1927l2.0244,0.3211
	c0.2741,0.0435,0.4951,0.1831,0.6633,0.4185c0.1678,0.2355,0.2299,0.4927,0.1857,0.7714L55.0154,32.9522z M55.5797,27.4522
	c-0.2328,0.172-0.4862,0.2362-0.7603,0.1927l-2.0245-0.3211c-0.2743-0.0436-0.4954-0.1829-0.6632-0.4184
	c-0.1681-0.2354-0.2299-0.4925-0.1857-0.7714l0.3265-2.0588c0.0442-0.2787,0.1825-0.504,0.4153-0.676
	c0.2325-0.1718,0.4859-0.2363,0.7602-0.1928l2.0245,0.3211c0.2741,0.0435,0.4951,0.1831,0.6633,0.4184
	c0.1678,0.2356,0.2299,0.4927,0.1856,0.7714l-0.3265,2.0587C55.9507,27.055,55.8121,27.2804,55.5797,27.4522z M41.451,12.8617
	l5.3708,0.8518c0.2055,0.7807,0.4842,1.5298,0.8309,2.2423l-5.7662-0.9145L41.451,12.8617z M34.9431,4.1544L1.8849,10.7606
	c-1.2593,0.2517-2.0844,1.4349-1.843,2.6427l4.8075,24.0575c0.2414,1.2079,1.4578,1.983,2.7171,1.7314l33.0582-6.6062
	c1.2593-0.2517,2.0841-1.4347,1.8427-2.6426L37.66,5.886C37.4186,4.6781,36.2024,3.9028,34.9431,4.1544z M40.1877,30.399
	L7.1295,37.0052L2.322,12.9477l33.0582-6.6062L40.1877,30.399z M8.0394,35.673l-1.7835-8.9247c0,0,4.0002,3.0677,8.3547,2.1975
	c3.8746-0.7743,8.4994-10.2066,12.5904-11.0242c5.1809-1.0353,10.5741,6.3951,10.5741,6.3951l1.0404,5.2062L8.0394,35.673z
	 M12.0492,23.2698c-2.1538,0.4304-4.2321-0.8853-4.6426-2.9393c-0.4104-2.0536,1.0025-4.068,3.1562-4.4984
	c2.1536-0.4304,4.2323,0.8863,4.6427,2.9399C15.616,20.826,14.2028,22.8394,12.0492,23.2698z M58.7467,0
	C52.913,0,48.1668,4.7457,48.1668,10.5798c0,5.834,4.7461,10.5798,10.5798,10.5798s10.5798-4.7458,10.5798-10.5798
	C69.3265,4.7457,64.5804,0,58.7467,0z M64.0366,11.9023h-3.9674v3.9674h-2.645v-3.9674h-3.9674v-2.645h3.9674V5.2899h2.645v3.9674
	h3.9674V11.9023z"/>
</svg>
