<?xml version="1.0" encoding="utf-8"?>
<!-- Generator: Adobe Illustrator 20.0.0, SVG Export Plug-In . SVG Version: 6.00 Build 0)  -->
<svg version="1.1" id="camera-plus" xmlns="http://www.w3.org/2000/svg" xmlns:xlink="http://www.w3.org/1999/xlink" x="0px"
	 y="0px" viewBox="0 0 30 30" enable-background="new 0 0 30 30" xml:space="preserve">
<rect fill="none" width="30" height="30"/>
<path d="M19.5931,8.143h-1.0972c-0.2164,0-0.4143-0.1222-0.5112-0.3158L17,5.8573H8.4286L7.4439,7.8272
	C7.347,8.0208,7.1491,8.143,6.9327,8.143H3.0001c-1.2603,0-2.2857,1.0254-2.2857,2.2857v11.4285
	c0,1.2603,1.0254,2.2857,2.2857,2.2857h19.4284c1.2603,0,2.2857-1.0254,2.2857-2.2857v-8.8643
	C22.0097,12.9201,19.8087,10.8101,19.5931,8.143z M12.7143,21.4286c-3.077,0-5.5714-2.4944-5.5714-5.5714
	c0-3.077,2.4944-5.5714,5.5714-5.5714s5.5714,2.4944,5.5714,5.5714C18.2857,18.9342,15.7913,21.4286,12.7143,21.4286z
	 M16.8571,15.8573c0,2.2845-1.8585,4.1428-4.1428,4.1428s-4.1428-1.8583-4.1428-4.1428c0-2.2845,1.8585-4.1428,4.1428-4.1428
	S16.8571,13.5728,16.8571,15.8573z M24.857,3.286c-2.4419,0-4.4285,1.9865-4.4285,4.4285c0,2.442,1.9866,4.4285,4.4285,4.4285
	s4.4285-1.9865,4.4285-4.4285C29.2856,5.2724,27.2989,3.286,24.857,3.286z M27.1427,8.2859h-1.7143v1.7143h-1.1428V8.2859h-1.7143
	V7.1431h1.7143V5.4288h1.1428v1.7143h1.7143V8.2859z"/>
</svg>
