<?xml version="1.0" encoding="utf-8"?>
<!-- Generator: Adobe Illustrator 21.0.2, SVG Export Plug-In . SVG Version: 6.00 Build 0)  -->
<svg version="1.1" id="image-plus" xmlns="http://www.w3.org/2000/svg" xmlns:xlink="http://www.w3.org/1999/xlink" x="0px" y="0px"
	 viewBox="0 0 42 30" enable-background="new 0 0 42 30" xml:space="preserve">
<rect fill="none" width="42" height="30"/>
<path d="M38,5H18c-1.1046,0-2,0.8954-2,2v16c0,1.1046,0.8954,2,2,2h20c1.1046,0,2-0.8954,2-2V7C40,5.8954,39.1046,5,38,5z M38,7
	v10.1185l-3.9299-3.9299c-0.3906-0.3906-1.0237-0.3906-1.4142,0l-6.585,6.585l-2.4716-2.4716c-0.3906-0.3905-1.0237-0.3905-1.4142,0
	L18,21.4869V7H38z M21,12c0-1.1046,0.8954-2,2-2c1.1046,0,2,0.8954,2,2c0,1.1046-0.8954,2-2,2C21.8954,14,21,13.1046,21,12z
	 M13.4699,16.4999H9.4702V20.5H6.4703v-4.0001H2.4698V13.5h4.0005V9.4999h2.9999V13.5h3.9997V16.4999z"/>
</svg>
