<?xml version="1.0" encoding="utf-8"?>
<!-- Generator: Adobe Illustrator 21.0.0, SVG Export Plug-In . SVG Version: 6.00 Build 0)  -->
<svg version="1.1" id="replace" xmlns="http://www.w3.org/2000/svg" xmlns:xlink="http://www.w3.org/1999/xlink" x="0px" y="0px"
	 viewBox="0 0 30 30" enable-background="new 0 0 30 30" xml:space="preserve">
<rect fill="none" width="30" height="30"/>
<path fill-rule="evenodd" clip-rule="evenodd" d="M1.1421,9.2597l8.1651-3.3821l3.3834,8.1656l-4.6198-1.9136
	c-1.5825,3.8209,0.2381,8.2165,4.059,9.7991c1.1598,0.4804,2.3695,0.6311,3.5395,0.5225l0.9944,2.4001
	c-1.7924,0.3046-3.6872,0.1346-5.4908-0.6125c-5.1025-2.1135-7.5255-7.9631-5.412-13.0656c0-0.0001,0.0001-0.0002,0.0001-0.0003
	L1.1421,9.2597z M17.87,8.0705c3.8209,1.5827,5.6417,5.9783,4.059,9.7992c-0.0001,0.0002-0.0003,0.0005-0.0004,0.0007
	l-4.6204-1.9138l3.3837,8.1665l8.166-3.3825l-4.6196-1.9135c0-0.0001,0.0001-0.0002,0.0001-0.0003
	c2.1135-5.1024-0.3095-10.9521-5.412-13.0656c-1.8039-0.7472-3.699-0.9171-5.4915-0.6124l0.9888,2.3865
	C15.4958,7.4272,16.7091,7.5897,17.87,8.0705z"/>
</svg>
